<svg width="24" height="24" viewBox="0 0 24 24" fill="none" xmlns="http://www.w3.org/2000/svg">
    <path d="M9.00024 15L15.0002 9M11.0002 6.00006L11.4632 5.46406C12.401 4.52639 13.6729 3.99966 14.9991 3.99976C16.3253 3.99985 17.5971 4.52676 18.5347 5.46456C19.4724 6.40237 19.9991 7.67425 19.9991 9.00042C19.999 10.3266 19.4721 11.5984 18.5342 12.5361L18.0002 13.0001M13.0001 18L12.6031 18.534C11.6544 19.4722 10.3739 19.9984 9.03964 19.9984C7.70535 19.9984 6.42489 19.4722 5.47614 18.534C5.0085 18.0716 4.63724 17.521 4.38385 16.9141C4.13047 16.3073 4 15.6561 4 14.9985C4 14.3408 4.13047 13.6897 4.38385 13.0829C4.63724 12.476 5.0085 11.9254 5.47614 11.463L6.00014 11" stroke="currentColor" stroke-width="1.5" stroke-linecap="round" stroke-linejoin="round"/>
</svg>