<svg width="125" height="32" viewBox="0 0 125 32" fill="none" xmlns="http://www.w3.org/2000/svg">
  <path d="M12.5909 0.692127C8.00208 0.846355 3.53411 1.58322 0.795805 2.64568C-0.0294367 2.9627 -0.0419404 2.97984 0.0247458 3.69957C0.25398 6.20149 1.00003 9.30747 2.07535 12.2549C4.25098 18.2184 7.81453 24.319 11.6823 28.7102C11.9991 29.0658 12.3075 29.4214 12.3659 29.4942C12.5784 29.747 14.0288 31.1264 14.1622 31.1993C14.3915 31.3278 14.479 31.2978 15.0291 30.9165C16.9089 29.6099 18.8011 27.7677 20.7642 25.3429C22.3229 23.415 24.5236 20.1377 25.9157 17.6743C28.3164 13.4288 30.6671 7.54242 31.0547 4.80487C31.1464 4.16226 31.1255 3.9609 30.9505 3.81096C30.7838 3.66958 30.0627 3.27973 29.5126 3.0441C25.5114 1.30047 19.4846 0.465069 12.5909 0.692127ZM17.7424 1.67319C20.2098 1.80171 22.7856 2.11874 24.657 2.53001C25.6989 2.75707 27.4911 3.24117 27.3327 3.25402C27.3036 3.25831 26.9368 3.21975 26.52 3.17263C24.0651 2.89844 22.2646 2.81705 19.3012 2.84275C16.8588 2.86417 16.317 2.88987 15.0708 3.0441C12.3867 3.37826 10.0152 4.08514 7.17267 5.39608C6.04734 5.91874 6.00983 5.99585 6.45163 6.85268C8.71479 11.2439 11.8615 15.9693 14.7999 19.388C14.9625 19.5765 15.1167 19.765 15.15 19.8035C15.2 19.8721 15.1667 19.9363 14.9041 20.3605C14.7374 20.6261 14.3956 21.1487 14.1414 21.5172C13.7704 22.0698 13.6704 22.1855 13.6162 22.1512C13.3286 21.9884 12.1991 20.9431 11.3781 20.0863C9.46918 18.0856 7.66448 15.6565 5.6639 12.3835C4.15512 9.91581 2.30875 6.38571 1.13757 3.71671L1.06672 3.55391L1.18342 3.51107C1.74192 3.2883 3.65914 2.76564 4.73446 2.53429C6.62251 2.13587 9.54837 1.78029 11.7574 1.67747C12.9202 1.62606 16.7588 1.62178 17.7424 1.67319ZM22.3646 3.81524C23.6567 3.86665 24.6528 3.93948 26.4075 4.11941C28.0413 4.28221 30.0877 4.54354 30.1377 4.59495C30.1669 4.62066 30.0252 5.3361 29.8835 5.87162C29.35 7.92799 28.1288 11.1154 26.8076 13.9043C25.9282 15.7636 24.8612 17.7086 23.8526 19.3023C21.3018 23.3336 19.0095 26.234 16.7005 28.3589L16.3545 28.6802L16.9297 27.7806C19.0762 24.4175 20.9184 21.2858 22.052 19.0538C23.194 16.8004 24.3194 13.6516 24.907 11.0597C25.0904 10.2543 25.3822 8.71198 25.428 8.34783C25.478 7.90657 25.3405 7.76948 24.7362 7.64952C23.3149 7.37105 20.2974 7.33678 17.4048 7.56812C14.9791 7.76091 11.9991 8.20217 9.46501 8.74625C9.01488 8.8405 8.63977 8.91333 8.6356 8.90476C8.60226 8.86621 8.04793 7.85944 7.68532 7.18255C7.46026 6.75843 7.28937 6.40284 7.30605 6.38571C7.3644 6.3343 8.48139 5.84163 9.11074 5.59315C11.7115 4.55211 13.958 4.03373 16.6546 3.85808C18.0008 3.7724 20.7225 3.75098 22.3646 3.81524ZM2.37127 8.42066C5.88063 15.1553 9.74426 20.3776 13.1578 22.9909C13.8371 23.505 13.908 23.4879 14.5123 22.6311C17.2173 18.7925 19.5096 14.0971 21.0559 9.24321L21.3393 8.3564H21.8812C22.7231 8.36068 24.2819 8.48921 24.4027 8.5706C24.4944 8.6263 24.0568 10.687 23.59 12.4049C23.0023 14.5555 22.1729 16.7275 21.2393 18.5783C19.9889 21.0545 17.2548 25.6428 15.125 28.8344C14.7416 29.4128 14.3956 29.9355 14.3581 29.9912L14.2873 30.0983L13.3787 29.1557C10.4403 26.114 7.6103 21.9756 5.26795 17.3102C3.65081 14.0928 2.37543 10.687 1.67106 7.72235C1.37097 6.47567 1.37514 6.47996 1.55019 6.83554C1.63355 6.99834 2.00032 7.71378 2.37127 8.42066ZM20.364 8.37354C20.364 8.40781 19.8514 9.93295 19.643 10.5199C18.6635 13.2746 17.4257 16.0078 16.0794 18.3941C15.7419 18.9981 15.721 19.0281 15.6585 18.9467C15.621 18.8996 15.3751 18.604 15.1083 18.2912C13.7288 16.6504 12.0116 14.2985 10.5403 12.0407C10.0318 11.2525 9.14408 9.80871 9.16076 9.79158C9.1816 9.77444 10.8404 9.43599 11.5698 9.30319C14.0664 8.8405 16.8713 8.51491 19.3012 8.40352C20.3682 8.3564 20.364 8.3564 20.364 8.37354Z" fill="url(#paint0_linear_9790_1086)" />
  <path d="M41.9755 9.20823C40.9335 9.43101 40.1 9.87655 39.3497 10.6049C38.3453 11.5859 37.8493 12.7983 37.8618 14.2635C37.866 15.2274 38.0369 15.9814 38.4078 16.714C38.8413 17.5665 39.6582 18.3719 40.5626 18.8389C40.8627 18.9931 41.5462 19.2331 41.9547 19.323C42.434 19.4301 43.5343 19.4344 44.0428 19.3273C45.2848 19.0703 46.2268 18.4533 46.9311 17.4423C47.0312 17.2966 47.1229 17.151 47.1312 17.1253C47.1437 17.0781 45.0056 15.9985 44.9055 15.9985C44.8847 15.9985 44.743 16.0971 44.5888 16.2213C44.0636 16.6326 43.6635 16.7483 42.8841 16.7183C42.4965 16.7011 42.3423 16.6754 42.1631 16.5983C41.4712 16.2984 41.0211 15.7801 40.8043 15.0303C40.7501 14.8461 40.7293 14.6362 40.7293 14.2635C40.7335 13.8265 40.7501 13.698 40.8418 13.4067C41.0461 12.7726 41.4212 12.3099 41.9547 12.04C42.3506 11.8344 42.5924 11.7787 43.0383 11.783C43.6968 11.783 44.1178 11.9372 44.6221 12.3528C44.8764 12.5627 44.8847 12.567 45.0139 12.5113C45.2098 12.4213 47.0978 11.4959 47.1145 11.4788C47.1645 11.4317 46.5227 10.5834 46.2393 10.3221C45.1556 9.31105 43.4926 8.87836 41.9755 9.20823Z" fill="black" />
  <path d="M52.7282 9.16052C51.9947 9.30618 51.4153 9.52467 50.861 9.85883C49.1438 10.8913 48.2352 12.6992 48.4103 14.7384C48.5436 16.2764 49.1605 17.4546 50.2942 18.3328C51.0402 18.9112 52.0405 19.3181 52.9783 19.4252C54.5996 19.6137 56.3709 18.9112 57.4546 17.6559C58.2548 16.7263 58.6299 15.6595 58.6299 14.3272C58.6299 12.8534 58.1673 11.6667 57.2129 10.6814C56.5335 9.98736 55.6791 9.49897 54.6913 9.2462C54.1661 9.10911 53.1908 9.06627 52.7282 9.16052ZM54.2245 11.8895C54.983 12.1551 55.5582 12.832 55.7291 13.6631C55.9208 14.5971 55.6874 15.5053 55.1039 16.1051C54.6704 16.5506 54.1411 16.7691 53.4909 16.7691C52.153 16.7691 51.1652 15.5953 51.2611 14.113C51.3403 12.9048 52.078 11.9966 53.145 11.7995C53.4367 11.7481 53.9286 11.7867 54.2245 11.8895Z" fill="black" />
  <path d="M65.8565 9.12689C65.1522 9.22114 64.7145 9.37536 64.2686 9.6881C63.931 9.92373 63.4934 10.4207 63.335 10.7377L63.2099 10.999V10.1379V9.27254H61.7303H60.2507L60.2591 14.2721L60.2716 19.2759L61.7428 19.2888L63.2099 19.2974V16.4998C63.2099 14.1179 63.2183 13.6638 63.2725 13.4496C63.4934 12.5756 64.1144 11.9458 64.8979 11.7959C65.0355 11.7702 65.3064 11.7573 65.4939 11.7702C66.2983 11.8216 66.8902 12.3614 67.1611 13.2953C67.2194 13.5052 67.2319 13.8822 67.2445 16.4184L67.257 19.2974L68.7241 19.2888L70.1911 19.2759L70.212 16.4056C70.237 13.1497 70.2078 13.4024 70.6038 12.7941C71.0331 12.13 71.6541 11.7573 72.3418 11.7573C73.2796 11.7573 73.8839 12.2243 74.1381 13.1411C74.1715 13.2696 74.1965 14.1907 74.209 16.2985L74.234 19.2759L75.7053 19.2888L77.1724 19.2974V16.3285C77.1724 12.8669 77.1474 12.5113 76.8223 11.6245C76.3596 10.3521 75.5344 9.57243 74.2965 9.24256C73.6213 9.05834 72.6585 9.09261 71.9625 9.32395C71.6041 9.43963 71.1664 9.66668 70.858 9.89374C70.5371 10.1294 69.9786 10.7334 69.816 11.0205C69.7494 11.1404 69.6827 11.239 69.6702 11.239C69.6577 11.239 69.5576 11.1061 69.4451 10.9433C68.8533 10.078 67.8821 9.40107 66.961 9.20828C66.6651 9.14402 66.0524 9.10118 65.8565 9.12689Z" fill="black" />
  <path d="M83.6746 9.1822C83.1161 9.30644 82.5368 9.61061 82.1242 9.9919L81.9658 10.1376V9.70486V9.27217H80.4862H79.0066V16.1053V22.9385H80.4862H81.9658V20.6165V18.2902L82.07 18.4444C82.1242 18.5301 82.2826 18.6886 82.4243 18.7957C83.0953 19.3141 83.9706 19.5369 84.9375 19.4341C86.7839 19.237 88.3093 18.0375 88.9262 16.3067C89.5013 14.6873 89.3013 12.6095 88.4427 11.2728C88.1801 10.8659 87.5216 10.189 87.1548 9.94477C86.2921 9.37927 85.5919 9.14793 84.6332 9.11794C84.1498 9.10509 83.958 9.11794 83.6746 9.1822ZM84.7249 11.8683C85.5335 12.0783 86.1337 12.738 86.3254 13.6248C86.4129 14.0318 86.3879 14.7944 86.2796 15.12C86.0003 15.9554 85.4543 16.4995 84.6916 16.7051C84.379 16.7865 83.7205 16.7865 83.4037 16.7051C82.6493 16.4995 82.0783 15.844 81.9033 14.9786C81.8241 14.5759 81.8241 13.869 81.9033 13.5177C82.1575 12.4124 83.0536 11.7141 84.1414 11.7784C84.3207 11.7869 84.5832 11.8298 84.7249 11.8683Z" fill="black" />
  <path d="M94.6353 9.14778C94.0101 9.24203 93.289 9.53335 92.7097 9.92749C91.6344 10.6515 90.955 11.7097 90.6716 13.0977C90.5674 13.599 90.5507 14.5886 90.6341 15.1712C90.9133 17.1505 92.0929 18.6328 93.8434 19.2026C94.4394 19.3954 94.7228 19.4425 95.3646 19.4382C95.8273 19.4382 96.019 19.4211 96.2816 19.3482C96.8151 19.1983 97.2694 18.9455 97.5986 18.6114L97.8862 18.3243V18.8085V19.2968L99.3575 19.2883L100.825 19.2754L100.837 14.2716L100.845 9.27202H99.3658H97.8862V9.72614V10.1845L97.6695 9.97033C97.2485 9.56763 96.6025 9.2506 95.969 9.14778C95.6564 9.09637 94.9729 9.09637 94.6353 9.14778ZM96.5192 11.8853C97.3069 12.1338 97.8445 12.8578 97.9737 13.8389C98.0904 14.7514 97.8529 15.6125 97.3319 16.1437C96.9068 16.585 96.4525 16.7692 95.7981 16.7692C95.3105 16.7692 95.0479 16.7135 94.6811 16.5293C94.1101 16.2423 93.7058 15.7068 93.5224 15.0084C93.4266 14.6229 93.4266 13.8346 93.5266 13.4962C93.6433 13.0977 93.8184 12.7721 94.0768 12.4894C94.6394 11.8639 95.6606 11.6111 96.5192 11.8853Z" fill="black" />
  <path d="M108.032 9.18258C107.607 9.27255 107.149 9.4739 106.782 9.73095C106.482 9.94087 105.982 10.4721 105.823 10.7548L105.702 10.9648L105.69 10.1165L105.681 9.27255H104.223H102.764V14.285V19.2974H104.223H105.681V16.4741V13.6509L105.844 13.3167C106.227 12.5285 106.89 11.9415 107.561 11.7959C107.682 11.7702 107.932 11.7573 108.12 11.7659C108.899 11.8087 109.27 12.2157 109.391 13.1754C109.412 13.351 109.433 14.799 109.433 16.397V19.2974L110.904 19.2888L112.371 19.2759V16.0843C112.371 13.1797 112.363 12.8541 112.296 12.4471C112.042 10.9733 111.341 9.95372 110.241 9.43963C109.599 9.13974 108.711 9.03692 108.032 9.18258Z" fill="black" />
  <path d="M113.738 9.30186C113.747 9.3447 114.68 11.4996 115.81 14.0915C116.939 16.6834 117.869 18.834 117.881 18.8726C117.894 18.9111 117.506 19.8236 117.023 20.9032C116.539 21.9785 116.143 22.8782 116.143 22.8996C116.143 22.9253 116.735 22.9339 117.61 22.9296L119.073 22.9168L122.028 16.1264C123.649 12.3907 124.987 9.31043 125 9.28044C125.012 9.24188 124.708 9.22903 123.549 9.22903H122.082L120.744 12.4036C120.007 14.1472 119.39 15.5738 119.369 15.5738C119.352 15.5738 118.836 14.3957 118.219 12.9476C117.606 11.5039 116.998 10.0773 116.868 9.77311L116.635 9.22903H115.176C113.805 9.22903 113.717 9.23332 113.738 9.30186Z" fill="black" />
  <defs>
    <linearGradient id="paint0_linear_9790_1086" x1="15.5541" y1="31.2678" x2="15.5541" y2="0.655542" gradientUnits="userSpaceOnUse">
      <stop stop-color="#5D45F8" />
      <stop offset="1" stop-color="#F3055B" />
    </linearGradient>
  </defs>
</svg>
