<svg width="125" height="38" viewBox="0 0 125 38" fill="none" xmlns="http://www.w3.org/2000/svg">
<path d="M12.5909 3.69213C8.00208 3.84635 3.53411 4.58322 0.795805 5.64568C-0.0294367 5.9627 -0.0419404 5.97984 0.0247458 6.69957C0.25398 9.20149 1.00003 12.3075 2.07535 15.2549C4.25098 21.2184 7.81453 27.319 11.6823 31.7102C11.9991 32.0658 12.3075 32.4214 12.3659 32.4942C12.5784 32.747 14.0288 34.1264 14.1622 34.1993C14.3915 34.3278 14.479 34.2978 15.0291 33.9165C16.9089 32.6099 18.8011 30.7677 20.7642 28.3429C22.3229 26.415 24.5236 23.1377 25.9157 20.6743C28.3164 16.4288 30.6671 10.5424 31.0547 7.80487C31.1464 7.16226 31.1255 6.9609 30.9505 6.81096C30.7838 6.66958 30.0627 6.27973 29.5126 6.0441C25.5114 4.30047 19.4846 3.46507 12.5909 3.69213ZM17.7424 4.67319C20.2098 4.80171 22.7856 5.11874 24.657 5.53001C25.6989 5.75707 27.4911 6.24117 27.3327 6.25402C27.3036 6.25831 26.9368 6.21975 26.52 6.17263C24.0651 5.89844 22.2646 5.81705 19.3012 5.84275C16.8588 5.86417 16.317 5.88987 15.0708 6.0441C12.3867 6.37826 10.0152 7.08514 7.17267 8.39608C6.04734 8.91874 6.00983 8.99585 6.45163 9.85268C8.71479 14.2439 11.8615 18.9693 14.7999 22.388C14.9625 22.5765 15.1167 22.765 15.15 22.8035C15.2 22.8721 15.1667 22.9363 14.9041 23.3605C14.7374 23.6261 14.3956 24.1487 14.1414 24.5172C13.7704 25.0698 13.6704 25.1855 13.6162 25.1512C13.3286 24.9884 12.1991 23.9431 11.3781 23.0863C9.46918 21.0856 7.66448 18.6565 5.6639 15.3835C4.15512 12.9158 2.30875 9.38571 1.13757 6.71671L1.06672 6.55391L1.18342 6.51107C1.74192 6.2883 3.65914 5.76564 4.73446 5.53429C6.62251 5.13587 9.54837 4.78029 11.7574 4.67747C12.9202 4.62606 16.7588 4.62178 17.7424 4.67319ZM22.3646 6.81524C23.6567 6.86665 24.6528 6.93948 26.4075 7.11941C28.0413 7.28221 30.0877 7.54354 30.1377 7.59495C30.1669 7.62066 30.0252 8.3361 29.8835 8.87162C29.35 10.928 28.1288 14.1154 26.8076 16.9043C25.9282 18.7636 24.8612 20.7086 23.8526 22.3023C21.3018 26.3336 19.0095 29.234 16.7005 31.3589L16.3545 31.6802L16.9297 30.7806C19.0762 27.4175 20.9184 24.2858 22.052 22.0538C23.194 19.8004 24.3194 16.6516 24.907 14.0597C25.0904 13.2543 25.3822 11.712 25.428 11.3478C25.478 10.9066 25.3405 10.7695 24.7362 10.6495C23.3149 10.3711 20.2974 10.3368 17.4048 10.5681C14.9791 10.7609 11.9991 11.2022 9.46501 11.7463C9.01488 11.8405 8.63977 11.9133 8.6356 11.9048C8.60226 11.8662 8.04793 10.8594 7.68532 10.1826C7.46026 9.75843 7.28937 9.40284 7.30605 9.38571C7.3644 9.3343 8.48139 8.84163 9.11074 8.59315C11.7115 7.55211 13.958 7.03373 16.6546 6.85808C18.0008 6.7724 20.7225 6.75098 22.3646 6.81524ZM2.37127 11.4207C5.88063 18.1553 9.74426 23.3776 13.1578 25.9909C13.8371 26.505 13.908 26.4879 14.5123 25.6311C17.2173 21.7925 19.5096 17.0971 21.0559 12.2432L21.3393 11.3564H21.8812C22.7231 11.3607 24.2819 11.4892 24.4027 11.5706C24.4944 11.6263 24.0568 13.687 23.59 15.4049C23.0023 17.5555 22.1729 19.7275 21.2393 21.5783C19.9889 24.0545 17.2548 28.6428 15.125 31.8344C14.7416 32.4128 14.3956 32.9355 14.3581 32.9912L14.2873 33.0983L13.3787 32.1557C10.4403 29.114 7.6103 24.9756 5.26795 20.3102C3.65081 17.0928 2.37543 13.687 1.67106 10.7224C1.37097 9.47567 1.37514 9.47996 1.55019 9.83554C1.63355 9.99834 2.00032 10.7138 2.37127 11.4207ZM20.364 11.3735C20.364 11.4078 19.8514 12.933 19.643 13.5199C18.6635 16.2746 17.4257 19.0078 16.0794 21.3941C15.7419 21.9981 15.721 22.0281 15.6585 21.9467C15.621 21.8996 15.3751 21.604 15.1083 21.2912C13.7288 19.6504 12.0116 17.2985 10.5403 15.0407C10.0318 14.2525 9.14408 12.8087 9.16076 12.7916C9.1816 12.7744 10.8404 12.436 11.5698 12.3032C14.0664 11.8405 16.8713 11.5149 19.3012 11.4035C20.3682 11.3564 20.364 11.3564 20.364 11.3735Z" fill="url(#paint0_linear_7738_1470)"/>
<path d="M41.9753 12.2085C40.9333 12.4313 40.0997 12.8768 39.3495 13.6051C38.345 14.5862 37.8491 15.7986 37.8616 17.2637C37.8657 18.2277 38.0366 18.9817 38.4076 19.7142C38.841 20.5668 39.6579 21.3722 40.5624 21.8392C40.8624 21.9934 41.546 22.2333 41.9544 22.3233C42.4337 22.4304 43.5341 22.4346 44.0425 22.3275C45.2846 22.0705 46.2265 21.4536 46.9309 20.4425C47.0309 20.2969 47.1226 20.1512 47.1309 20.1255C47.1434 20.0784 45.0053 18.9988 44.9053 18.9988C44.8845 18.9988 44.7427 19.0973 44.5885 19.2216C44.0634 19.6328 43.6633 19.7485 42.8839 19.7185C42.4963 19.7014 42.342 19.6757 42.1628 19.5986C41.4709 19.2987 41.0208 18.7803 40.8041 18.0306C40.7499 17.8464 40.7291 17.6364 40.7291 17.2637C40.7332 16.8267 40.7499 16.6982 40.8416 16.4069C41.0458 15.7729 41.4209 15.3102 41.9544 15.0403C42.3504 14.8346 42.5921 14.7789 43.0381 14.7832C43.6966 14.7832 44.1176 14.9375 44.6219 15.353C44.8761 15.5629 44.8845 15.5672 45.0137 15.5115C45.2095 15.4216 47.0976 14.4962 47.1143 14.4791C47.1643 14.4319 46.5224 13.5837 46.239 13.3223C45.1554 12.3113 43.4924 11.8786 41.9753 12.2085Z" fill="black"/>
<path d="M52.728 12.1605C51.9944 12.3062 51.4151 12.5247 50.8607 12.8588C49.1436 13.8913 48.235 15.6992 48.41 17.7384C48.5434 19.2764 49.1602 20.4546 50.2939 21.3328C51.04 21.9112 52.0403 22.3181 52.978 22.4252C54.5993 22.6137 56.3707 21.9112 57.4543 20.6559C58.2546 19.7263 58.6297 18.6595 58.6297 17.3272C58.6297 15.8534 58.1671 14.6667 57.2126 13.6814C56.5332 12.9874 55.6788 12.499 54.691 12.2462C54.1659 12.1091 53.1906 12.0663 52.728 12.1605ZM54.2242 14.8895C54.9828 15.1551 55.558 15.832 55.7288 16.6631C55.9206 17.5971 55.6872 18.5053 55.1037 19.1051C54.6702 19.5506 54.1409 19.7691 53.4907 19.7691C52.1528 19.7691 51.165 18.5953 51.2609 17.113C51.3401 15.9048 52.0778 14.9966 53.1447 14.7995C53.4365 14.7481 53.9283 14.7867 54.2242 14.8895Z" fill="black"/>
<path d="M65.8563 12.1269C65.1519 12.2211 64.7143 12.3754 64.2683 12.6881C63.9307 12.9237 63.4931 13.4207 63.3347 13.7377L63.2097 13.999V13.1379V12.2725H61.7301H60.2505L60.2588 17.2721L60.2713 22.2759L61.7426 22.2888L63.2097 22.2974V19.4998C63.2097 17.1179 63.218 16.6638 63.2722 16.4496C63.4931 15.5756 64.1141 14.9458 64.8977 14.7959C65.0352 14.7702 65.3061 14.7573 65.4937 14.7702C66.2981 14.8216 66.8899 15.3614 67.1608 16.2953C67.2192 16.5052 67.2317 16.8822 67.2442 19.4184L67.2567 22.2974L68.7238 22.2888L70.1909 22.2759L70.2117 19.4056C70.2368 16.1497 70.2076 16.4024 70.6035 15.7941C71.0328 15.13 71.6538 14.7573 72.3415 14.7573C73.2793 14.7573 73.8837 15.2243 74.1379 16.1411C74.1712 16.2696 74.1962 17.1907 74.2087 19.2985L74.2338 22.2759L75.705 22.2888L77.1721 22.2974V19.3285C77.1721 15.8669 77.1471 15.5113 76.822 14.6245C76.3594 13.3521 75.5341 12.5724 74.2963 12.2426C73.6211 12.0583 72.6583 12.0926 71.9623 12.324C71.6038 12.4396 71.1662 12.6667 70.8578 12.8937C70.5368 13.1294 69.9783 13.7334 69.8158 14.0205C69.7491 14.1404 69.6824 14.239 69.6699 14.239C69.6574 14.239 69.5574 14.1061 69.4449 13.9433C68.853 13.078 67.8819 12.4011 66.9608 12.2083C66.6649 12.144 66.0522 12.1012 65.8563 12.1269Z" fill="black"/>
<path d="M83.6744 12.1822C83.1159 12.3064 82.5366 12.6106 82.1239 12.9919L81.9656 13.1376V12.7049V12.2722H80.4859H79.0063V19.1053V25.9385H80.4859H81.9656V23.6165V21.2902L82.0697 21.4444C82.1239 21.5301 82.2823 21.6886 82.424 21.7957C83.095 22.3141 83.9703 22.5369 84.9373 22.4341C86.7836 22.237 88.3091 21.0375 88.9259 19.3067C89.5011 17.6873 89.301 15.6095 88.4425 14.2728C88.1799 13.8659 87.5213 13.189 87.1546 12.9448C86.2918 12.3793 85.5916 12.1479 84.633 12.1179C84.1495 12.1051 83.9578 12.1179 83.6744 12.1822ZM84.7247 14.8683C85.5333 15.0783 86.1334 15.738 86.3252 16.6248C86.4127 17.0318 86.3877 17.7944 86.2793 18.12C86.0001 18.9554 85.4541 19.4995 84.6914 19.7051C84.3788 19.7865 83.7202 19.7865 83.4035 19.7051C82.6491 19.4995 82.0781 18.844 81.903 17.9786C81.8238 17.5759 81.8238 16.869 81.903 16.5177C82.1573 15.4124 83.0534 14.7141 84.1412 14.7784C84.3204 14.7869 84.583 14.8298 84.7247 14.8683Z" fill="black"/>
<path d="M94.635 12.1478C94.0098 12.242 93.2888 12.5334 92.7095 12.9275C91.6341 13.6515 90.9548 14.7097 90.6714 16.0977C90.5672 16.599 90.5505 17.5886 90.6339 18.1712C90.9131 20.1505 92.0926 21.6328 93.8431 22.2026C94.4391 22.3954 94.7225 22.4425 95.3644 22.4382C95.827 22.4382 96.0188 22.4211 96.2813 22.3482C96.8148 22.1983 97.2691 21.9455 97.5984 21.6114L97.886 21.3243V21.8085V22.2968L99.3572 22.2883L100.824 22.2754L100.837 17.2716L100.845 12.272H99.3656H97.886V12.7261V13.1845L97.6692 12.9703C97.2483 12.5676 96.6023 12.2506 95.9687 12.1478C95.6562 12.0964 94.9726 12.0964 94.635 12.1478ZM96.5189 14.8853C97.3066 15.1338 97.8443 15.8578 97.9735 16.8389C98.0902 17.7514 97.8526 18.6125 97.3316 19.1437C96.9065 19.585 96.4522 19.7692 95.7979 19.7692C95.3102 19.7692 95.0476 19.7135 94.6809 19.5293C94.1099 19.2423 93.7056 18.7068 93.5222 18.0084C93.4263 17.6229 93.4263 16.8346 93.5264 16.4962C93.6431 16.0977 93.8181 15.7721 94.0765 15.4894C94.6392 14.8639 95.6603 14.6111 96.5189 14.8853Z" fill="black"/>
<path d="M108.032 12.1826C107.607 12.2725 107.148 12.4739 106.782 12.7309C106.481 12.9409 105.981 13.4721 105.823 13.7548L105.702 13.9648L105.69 13.1165L105.681 12.2725H104.222H102.764V17.285V22.2974H104.222H105.681V19.4741V16.6509L105.844 16.3167C106.227 15.5285 106.89 14.9415 107.561 14.7959C107.682 14.7702 107.932 14.7573 108.119 14.7659C108.899 14.8087 109.27 15.2157 109.391 16.1754C109.411 16.351 109.432 17.799 109.432 19.397V22.2974L110.904 22.2888L112.371 22.2759V19.0843C112.371 16.1797 112.362 15.8541 112.296 15.4471C112.041 13.9733 111.341 12.9537 110.241 12.4396C109.599 12.1397 108.711 12.0369 108.032 12.1826Z" fill="black"/>
<path d="M113.738 12.3021C113.746 12.3449 114.68 14.4999 115.809 17.0917C116.939 19.6836 117.868 21.8342 117.881 21.8728C117.893 21.9114 117.506 22.8239 117.022 23.9035C116.539 24.9788 116.143 25.8784 116.143 25.8999C116.143 25.9256 116.735 25.9341 117.61 25.9299L119.073 25.917L122.028 19.1267C123.649 15.3909 124.987 12.3107 125 12.2807C125.012 12.2421 124.708 12.2293 123.549 12.2293H122.082L120.744 15.4038C120.006 17.1474 119.39 18.574 119.369 18.574C119.352 18.574 118.835 17.3959 118.218 15.9479C117.606 14.5041 116.997 13.0775 116.868 12.7734L116.635 12.2293H115.176C113.805 12.2293 113.717 12.2336 113.738 12.3021Z" fill="black"/>
<defs>
<linearGradient id="paint0_linear_7738_1470" x1="15.5541" y1="34.2678" x2="15.5541" y2="3.65554" gradientUnits="userSpaceOnUse">
<stop stop-color="#5D45F8"/>
<stop offset="1" stop-color="#F3055B"/>
</linearGradient>
</defs>
</svg>
